<svg width="914" height="172" viewBox="0 0 914 172" fill="none" xmlns="http://www.w3.org/2000/svg">
<path d="M851.327 166.921C844.175 166.921 837.262 167.062 830.366 166.874C825.885 166.748 823.821 164.723 823.069 160.374C818.813 135.695 814.653 111 810.268 86.3372C806.54 65.3161 802.588 44.3264 798.715 23.3367C798.651 23.0227 798.619 22.693 798.491 22.4261C798.283 22.0337 797.995 21.6883 797.739 21.3272C797.531 21.7511 797.115 22.1907 797.131 22.5988C797.323 28.8 797.579 35.0011 797.803 41.1866C797.963 45.6922 798.235 50.1978 798.251 54.7035C798.283 87.6559 798.283 120.608 798.235 153.576C798.235 155.303 798.763 156.308 800.284 157.124C802.684 158.412 805.004 159.872 807.276 161.395C807.836 161.771 808.316 162.619 808.364 163.278C808.508 165.209 808.412 167.14 808.412 169.228H770.905C770.905 167.015 770.857 164.786 770.953 162.556C770.969 162.148 771.577 161.677 772.025 161.395C774.282 159.966 776.522 158.49 778.874 157.25C780.602 156.339 781.194 155.24 781.178 153.278C781.114 110.043 781.13 66.8232 781.13 23.5879C781.13 21.5156 781.066 19.4433 781.162 17.3867C781.21 16.225 780.762 15.5656 779.786 14.9691C777.45 13.5562 775.194 12.0019 772.841 10.6204C771.801 9.99246 771.369 9.286 771.385 8.06147C771.385 3.08486 771.353 3.08486 776.506 3.08486C786.939 3.08486 797.355 3.00637 807.788 3.14766C816.445 3.27325 819.901 6.09909 821.357 14.4039C826.285 42.4582 831.246 70.5125 835.87 98.6138C837.966 111.393 839.31 124.298 841.007 137.155C841.071 137.61 841.199 138.066 841.743 138.537C842.271 135.632 842.799 132.728 843.311 129.824C847.903 103.167 852.495 76.5095 857.088 49.8525C859.152 37.827 861.232 25.7858 863.296 13.7602C863.328 13.5719 863.328 13.3835 863.376 13.1951C864.864 5.73801 867.521 3.21046 875.041 3.11626C887.25 2.95927 899.475 3.08486 911.7 3.08486C912.004 3.08486 912.308 3.17906 912.804 3.24185C912.804 5.15714 912.868 7.02533 912.756 8.87783C912.724 9.3802 912.212 9.97677 911.748 10.2907C909.444 11.8764 907.123 13.4463 904.723 14.8749C903.491 15.6127 903.267 16.5233 903.267 17.8263C903.299 40.5115 903.299 63.181 903.299 85.8662C903.299 108.363 903.315 130.844 903.267 153.341C903.267 154.848 903.747 155.727 905.011 156.528C907.716 158.208 910.324 160.013 912.948 161.803C913.38 162.101 913.924 162.588 913.94 163.012C914.036 165.052 913.988 167.109 913.988 169.244H867.777C867.777 167.14 867.696 165.084 867.825 163.043C867.857 162.572 868.497 162.022 868.977 161.693C871.585 159.887 874.193 158.051 876.913 156.418C878.225 155.633 878.433 154.66 878.433 153.31C878.401 117.594 878.369 81.8786 878.433 46.1789C878.449 37.9683 878.865 29.7733 879.089 21.5627C879.105 20.9661 879.089 20.3696 879.089 19.773C878.897 19.7259 878.721 19.6631 878.529 19.616C878.305 20.0713 877.969 20.5109 877.873 20.9818C875.425 34.3418 873.009 47.7174 870.577 61.093C866.544 83.3386 862.512 105.569 858.496 127.814C856.256 140.138 854.032 152.462 851.791 164.786C851.663 165.461 851.519 166.12 851.359 166.889L851.327 166.921Z" fill="#1F2022"/>
<path d="M465.587 16.8844V19.1136C465.587 64.2956 465.587 109.462 465.555 154.644C465.555 156.23 465.971 157.124 467.475 157.815C470.131 159.04 472.707 160.437 475.251 161.897C475.827 162.227 476.371 163.059 476.419 163.718C476.579 165.508 476.467 167.329 476.467 169.26H430.288C430.288 167.172 430.224 165.131 430.336 163.09C430.368 162.65 431.024 162.132 431.52 161.865C434.32 160.343 437.169 158.945 439.937 157.376C440.497 157.046 440.769 156.182 441.105 155.523C441.233 155.272 441.121 154.911 441.121 154.597C441.121 108.975 441.121 63.3694 441.153 17.7478C441.153 16.1936 440.769 15.2203 439.377 14.4039C437.233 13.148 435.264 11.6409 433.168 10.3221C432.176 9.70988 431.824 8.98772 431.888 7.85739C431.984 6.19328 431.92 4.49778 431.92 2.70808H538.568C538.568 4.81176 538.632 6.86834 538.52 8.90923C538.504 9.3331 537.976 9.85117 537.544 10.1338C535.256 11.7194 532.856 13.1951 530.631 14.8592C529.991 15.3302 529.447 16.3192 529.415 17.0885C529.287 20.9033 529.351 24.7339 529.351 28.5488C529.351 70.5282 529.351 112.508 529.319 154.487C529.319 156.135 529.719 157.093 531.32 157.815C533.992 159.024 536.552 160.453 539.096 161.881C539.624 162.179 540.232 162.807 540.28 163.326C540.424 165.241 540.328 167.188 540.328 169.228H494.341C494.341 167.125 494.277 165.084 494.405 163.043C494.437 162.603 495.109 162.07 495.589 161.803C498.085 160.405 500.581 158.993 503.173 157.768C504.598 157.093 504.998 156.198 504.982 154.707C504.934 122.006 504.95 89.2886 504.95 56.5874V19.1921C504.95 18.4543 504.95 17.7321 504.95 16.8844H465.587Z" fill="#1F2022"/>
<path d="M762.233 86.0703C762.233 99.7285 762.233 113.387 762.233 127.045C762.233 132.712 761.481 138.285 759.529 143.655C755.832 153.875 749.112 161.709 739.079 166.23C722.31 173.781 705.172 174.032 688.451 166.324C673.954 159.636 666.786 147.611 665.266 132.21C664.977 129.353 664.977 126.448 664.977 123.575C664.961 97.4521 664.977 71.3131 664.977 45.1898C664.977 38.3607 666.034 31.7043 668.882 25.4247C673.298 15.6284 680.595 8.51675 690.691 4.56058C706.357 -1.59347 722.246 -1.62487 737.687 5.11005C752.776 11.688 760.361 23.792 761.945 39.6638C762.233 42.5838 762.233 45.5509 762.233 48.4866C762.265 61.0145 762.233 73.5424 762.233 86.086V86.0703ZM690.147 85.8505C690.147 99.5715 690.099 113.293 690.179 127.014C690.195 130.326 690.451 133.654 690.963 136.92C692.772 148.333 699.188 154.456 710.485 155.774C721.478 157.062 730.614 151.74 734.711 141.661C736.599 136.998 737.303 132.116 737.319 127.139C737.335 99.6971 737.367 72.2708 737.287 44.8288C737.287 41.5947 736.887 38.3136 736.215 35.1424C733.847 23.949 726.774 17.1826 715.877 16.2407C703.348 15.1575 694.132 20.2126 691.331 33.337C690.611 36.7437 690.227 40.276 690.195 43.7612C690.067 57.7962 690.147 71.8312 690.147 85.8505Z" fill="#1F2022"/>
<path d="M97.1592 85.9604C97.1592 99.7442 97.1432 113.528 97.1592 127.312C97.1592 133.513 96.2312 139.541 93.879 145.319C89.6387 155.664 82.2301 163.153 71.7333 167.313C56.5002 173.373 40.963 173.593 25.7779 167.407C10.4328 161.159 2.28817 149.275 0.368027 133.246C0.0640048 130.766 0.0160012 128.254 0.0160012 125.742C0 98.6767 0 71.6114 0 44.5462C0 38.1566 1.05608 31.9398 3.60027 26.0369C8.28862 15.1575 16.4492 7.6847 27.6981 3.74422C42.2111 -1.34228 56.8842 -1.29519 71.1733 4.43498C86.2624 10.4948 94.535 21.9552 96.6952 37.6857C97.0472 40.276 97.1272 42.9292 97.1432 45.5509C97.1912 59.0207 97.1592 72.4906 97.1592 85.9604ZM25.2819 85.929C25.2819 85.929 25.2019 85.929 25.1699 85.929C25.1699 99.336 25.1379 112.743 25.1859 126.15C25.1859 129.211 25.3459 132.288 25.6979 135.334C27.106 147.564 33.6985 154.346 45.3954 155.743C56.3562 157.062 65.3649 151.912 69.5892 141.896C71.6213 137.077 72.2614 132.022 72.2614 126.841C72.2454 99.5872 72.2774 72.3493 72.2134 45.0956C72.2134 41.9244 71.9253 38.6904 71.3173 35.582C68.7891 22.7872 59.7964 15.6284 47.1395 16.068C36.2427 16.4448 29.3942 21.6726 26.658 31.9555C25.9219 34.7185 25.3619 37.6229 25.3459 40.4644C25.2179 55.6297 25.2819 70.7794 25.2819 85.9447V85.929Z" fill="#1F2022"/>
<path d="M552.265 2.58249C552.873 2.58249 553.369 2.58249 553.881 2.58249C570.122 2.58249 586.38 2.5197 602.621 2.62959C611.037 2.67669 619.326 3.75992 627.183 6.94684C640.32 12.2845 647.856 22.0337 648.56 35.7861C649.28 49.6484 649.184 63.5892 648.56 77.4672C647.904 91.9417 638.464 102.052 623.246 106.197C616.35 108.08 609.293 108.646 602.189 108.755C597.452 108.834 592.716 108.787 587.996 108.787C587.308 108.787 586.62 108.787 585.836 108.787C585.804 109.603 585.74 110.215 585.74 110.828C585.74 125.114 585.74 139.384 585.708 153.671C585.708 154.942 586.06 155.711 587.18 156.402C589.884 158.082 592.46 159.935 595.132 161.646C596.092 162.258 596.524 162.949 596.46 164.095C596.364 165.775 596.428 167.454 596.428 169.26H550.441C550.441 167.156 550.377 165.052 550.489 162.964C550.505 162.556 551.113 162.085 551.561 161.803C554.089 160.107 556.601 158.349 559.226 156.826C560.778 155.916 561.322 154.879 561.322 153.09C561.258 108.991 561.226 64.8922 561.37 20.7934C561.37 17.01 560.682 14.294 556.985 12.7555C556.761 12.6613 556.569 12.4729 556.345 12.3316C551.497 9.08192 551.353 8.73654 552.265 2.61389V2.58249ZM585.852 17.214V95.2228C593.068 95.0188 600.189 95.2229 607.197 94.5007C615.278 93.6529 620.67 89.0217 622.622 81.1565C623.374 78.0794 623.758 74.8611 623.806 71.6899C623.95 61.4227 623.886 51.1398 623.838 40.8726C623.838 38.6904 623.662 36.4925 623.374 34.3261C622.11 24.7025 616.638 18.988 606.989 17.685C602.893 17.1356 598.701 17.3239 594.54 17.2454C591.676 17.1826 588.812 17.2454 585.852 17.2454V17.214Z" fill="#1F2022"/>
<path d="M139.482 108.771C139.434 109.635 139.386 110.247 139.386 110.859C139.386 125.083 139.386 139.306 139.354 153.529C139.354 154.879 139.754 155.696 140.922 156.418C143.675 158.129 146.347 159.966 149.003 161.818C149.467 162.132 149.995 162.713 150.011 163.2C150.123 165.178 150.059 167.172 150.059 169.26H104.056C104.056 167.203 103.992 165.225 104.104 163.247C104.136 162.76 104.664 162.179 105.128 161.866C107.864 160.013 110.616 158.176 113.432 156.449C114.585 155.743 115.065 154.958 115.065 153.592C115.033 108.175 115.033 62.7414 115.065 17.3239C115.065 16.1308 114.745 15.3773 113.688 14.7179C111.368 13.2893 109.112 11.7351 106.888 10.1495C106.392 9.80408 105.912 9.11331 105.88 8.54815C105.752 6.67995 105.832 4.81176 105.832 2.70808C106.584 2.66099 107.192 2.61389 107.8 2.61389C123.785 2.61389 139.786 2.56679 155.772 2.64529C163.676 2.67669 171.453 3.60293 178.957 6.22468C193.502 11.3269 202.191 22.5517 202.591 37.6857C202.911 50.1507 202.943 62.6315 202.591 75.0809C202.127 91.565 192.286 102.633 175.277 106.652C168.205 108.316 161.004 108.755 153.771 108.803C149.115 108.834 144.443 108.803 139.53 108.803L139.482 108.771ZM139.386 94.8775C139.914 94.9403 140.218 95.0188 140.522 95.0188C146.155 95.0188 151.787 95.1758 157.404 94.9246C160.172 94.799 163.02 94.2652 165.612 93.3233C173.597 90.4346 176.957 83.9509 177.213 76.274C177.661 62.8984 177.693 49.4757 177.213 36.1001C176.813 24.6554 170.141 18.3444 158.476 17.4809C152.939 17.0728 147.355 17.371 141.803 17.1983C139.898 17.1356 139.322 17.5908 139.322 19.5532C139.402 43.981 139.37 68.4088 139.37 92.8366C139.37 93.5116 139.37 94.171 139.37 94.8932L139.386 94.8775Z" fill="#1F2022"/>
<path d="M245.97 16.5076V79.1627C246.386 79.2255 246.754 79.3197 247.122 79.3197C254.035 79.3197 260.947 79.3668 267.844 79.2726C268.516 79.2726 269.476 78.6132 269.796 78.0166C271.588 74.5628 273.188 71.0148 274.932 67.5296C275.188 67.0116 275.845 66.3679 276.357 66.3365C278.389 66.1952 280.421 66.2737 282.597 66.2737V106.291C280.373 106.291 278.165 106.354 275.957 106.244C275.573 106.228 275.124 105.569 274.884 105.098C273.172 101.738 271.524 98.347 269.764 95.0188C269.476 94.485 268.692 93.857 268.148 93.8413C260.915 93.7785 253.699 93.8099 246.466 93.8413C246.354 93.8413 246.242 93.9198 245.842 94.0611C245.842 94.7519 245.842 95.5368 245.842 96.3218C245.842 112.492 245.842 128.646 245.842 144.816C245.842 145.758 245.778 146.7 245.746 147.626C245.666 150.264 244.37 152.101 241.922 153.215C241.41 153.451 241.026 153.937 240.578 154.314C240.658 154.503 240.754 154.707 240.834 154.895C241.506 154.895 242.194 154.895 242.866 154.895C255.283 154.895 267.684 154.864 280.101 154.942C281.685 154.942 282.309 154.424 282.789 153.027C285.061 146.512 287.477 140.059 289.766 133.544C290.134 132.477 290.662 132.1 291.798 132.131C294.726 132.21 297.67 132.163 300.758 132.163V169.275H209.792C209.792 167.14 209.712 165.1 209.84 163.059C209.872 162.588 210.512 162.054 211.008 161.724C213.744 159.887 216.496 158.051 219.312 156.324C220.352 155.68 220.72 154.958 220.72 153.749C220.672 142.854 220.688 131.943 220.688 121.048C220.688 86.4 220.688 51.7521 220.736 17.1042C220.736 15.4557 220.256 14.4667 218.832 13.6347C216.752 12.4101 214.832 10.9344 212.784 9.64708C211.808 9.05052 211.376 8.37546 211.456 7.22942C211.568 5.75371 211.488 4.26229 211.488 2.69239H297.622V39.9463C295.51 39.9463 293.302 39.9777 291.094 39.9463C289.318 39.9149 287.109 40.4016 285.909 39.5539C284.789 38.7689 284.725 36.5239 284.261 34.9069C282.661 29.4436 281.029 23.9804 279.509 18.4857C279.109 17.0571 278.581 16.4762 276.949 16.4919C267.284 16.5861 257.635 16.539 247.97 16.539C247.346 16.539 246.722 16.539 245.986 16.539L245.97 16.5076Z" fill="#1F2022"/>
<path d="M362.907 108.975C354.746 125.553 346.746 141.755 338.649 158.192C341.081 159.416 343.354 160.641 345.69 161.724C346.762 162.227 347.21 162.855 347.146 164.032C347.05 165.712 347.13 167.407 347.13 169.228H313.255C313.255 167.203 313.239 165.162 313.271 163.121C313.271 162.823 313.559 162.478 313.799 162.227C314.007 162.007 314.327 161.85 314.615 161.74C320.024 159.809 322.824 155.727 325.24 150.766C335.033 130.656 345.162 110.734 355.21 90.7486C355.77 89.634 355.834 88.7234 355.37 87.5774C345.866 63.6206 336.377 39.6481 326.968 15.6598C326.168 13.6347 324.92 12.3787 323.096 11.3112C318.504 8.62664 318.536 8.56385 318.904 3.36745C318.904 3.17906 319 3.00637 319.032 2.84938C319.16 2.77088 319.272 2.64529 319.368 2.64529C327.8 2.70808 336.249 2.72378 344.682 2.86508C347.274 2.91217 349.386 4.1995 350.714 6.35027C352.026 8.48535 353.322 10.6832 354.218 13.0067C359.803 27.3871 365.259 41.8145 370.78 56.2263C371.02 56.87 371.292 57.4822 371.724 58.5184C379.18 43.3373 386.477 28.486 393.821 13.5405C391.309 12.2688 388.893 11.1228 386.573 9.81977C385.997 9.49009 385.469 8.65804 385.405 8.01438C385.245 6.28748 385.357 4.54488 385.357 2.70808H418.735C418.735 4.73327 418.767 6.71135 418.703 8.68944C418.703 8.98772 418.367 9.3174 418.127 9.56859C417.967 9.74128 417.711 9.86687 417.471 9.94537C411.967 11.8764 409.166 16.0209 406.75 21.0446C397.966 39.3341 388.813 57.4351 379.74 75.599C379.116 76.8392 379.1 77.8596 379.612 79.1313C390.029 105.019 400.398 130.938 410.831 156.826C411.215 157.784 412.095 158.631 412.943 159.275C413.983 160.076 415.231 160.625 416.399 161.285C420.719 163.749 420.831 164.016 419.999 169.291C419.471 169.323 418.911 169.385 418.367 169.385C411.263 169.385 404.158 169.197 397.07 169.448C390.845 169.668 386.877 167.046 384.621 161.504C380.06 150.358 375.436 139.227 370.86 128.097C368.491 122.351 366.155 116.605 363.803 110.859C363.595 110.341 363.323 109.854 362.923 109.007L362.907 108.975Z" fill="#1F2022"/>
</svg>
