<svg width="1440" height="297" viewBox="0 0 1440 297" fill="none" xmlns="http://www.w3.org/2000/svg">
<path d="M1380.51 288.229C1368.36 288.229 1356.61 288.473 1344.9 288.148C1337.28 287.931 1333.78 284.434 1332.5 276.925C1325.27 234.311 1318.2 191.669 1310.75 149.082C1304.41 112.784 1297.7 76.5403 1291.12 40.2965C1291.01 39.7543 1290.95 39.1851 1290.74 38.7242C1290.38 38.0465 1289.89 37.4501 1289.46 36.8266C1289.11 37.5586 1288.4 38.3176 1288.43 39.0224C1288.75 49.7302 1289.19 60.438 1289.57 71.1187C1289.84 78.8987 1290.3 86.6788 1290.33 94.4589C1290.38 151.359 1290.38 208.26 1290.3 265.187C1290.3 268.169 1291.2 269.904 1293.78 271.314C1297.86 273.536 1301.8 276.058 1305.66 278.687C1306.61 279.338 1307.43 280.802 1307.51 281.94C1307.76 285.274 1307.59 288.609 1307.59 292.214H1243.86C1243.86 288.392 1243.78 284.542 1243.95 280.693C1243.97 279.988 1245.01 279.175 1245.77 278.687C1249.6 276.22 1253.41 273.672 1257.4 271.53C1260.34 269.958 1261.35 268.061 1261.32 264.672C1261.21 190.016 1261.24 115.387 1261.24 40.7302C1261.24 37.1519 1261.13 33.5736 1261.29 30.0224C1261.37 28.0164 1260.61 26.8779 1258.95 25.8478C1254.98 23.408 1251.15 20.7243 1247.15 18.3388C1245.39 17.2544 1244.65 16.0346 1244.68 13.9201C1244.68 5.32677 1244.63 5.32677 1253.38 5.32677C1271.11 5.32677 1288.81 5.19123 1306.53 5.4352C1321.24 5.65207 1327.11 10.5316 1329.59 24.8719C1337.96 73.3144 1346.39 121.757 1354.25 170.281C1357.81 192.347 1360.09 214.63 1362.98 236.832C1363.08 237.618 1363.3 238.404 1364.23 239.217C1365.12 234.202 1366.02 229.187 1366.89 224.172C1374.69 178.142 1382.5 132.112 1390.3 86.0825C1393.81 65.3175 1397.34 44.5254 1400.85 23.7604C1400.9 23.4351 1400.9 23.1098 1400.98 22.7845C1403.51 9.90807 1408.03 5.54363 1420.8 5.38098C1441.55 5.1099 1462.32 5.32677 1483.09 5.32677C1483.61 5.32677 1484.12 5.48942 1484.97 5.59785C1484.97 8.90507 1485.08 12.131 1484.89 15.3297C1484.83 16.1972 1483.96 17.2273 1483.17 17.7695C1479.26 20.5074 1475.32 23.2183 1471.24 25.6851C1469.14 26.9592 1468.76 28.5315 1468.76 30.7815C1468.82 69.953 1468.82 109.097 1468.82 148.269C1468.82 187.115 1468.85 225.934 1468.76 264.78C1468.76 267.383 1469.58 268.901 1471.73 270.283C1476.32 273.184 1480.75 276.302 1485.21 279.392C1485.95 279.907 1486.87 280.747 1486.9 281.479C1487.06 285.003 1486.98 288.554 1486.98 292.241H1408.46C1408.46 288.609 1408.32 285.058 1408.54 281.533C1408.6 280.72 1409.68 279.771 1410.5 279.202C1414.93 276.085 1419.36 272.913 1423.98 270.094C1426.21 268.738 1426.57 267.058 1426.57 264.726C1426.51 203.055 1426.46 141.383 1426.57 79.7391C1426.59 65.5614 1427.3 51.4109 1427.68 37.2333C1427.71 36.2031 1427.68 35.173 1427.68 34.1429C1427.36 34.0616 1427.06 33.9532 1426.73 33.8718C1426.35 34.658 1425.78 35.417 1425.62 36.2303C1421.46 59.2994 1417.35 82.3957 1413.22 105.492C1406.37 143.904 1399.52 182.29 1392.69 220.702C1388.89 241.982 1385.11 263.262 1381.3 284.542C1381.08 285.708 1380.84 286.847 1380.57 288.175L1380.51 288.229Z" fill="#1F2022"/>
<path d="M725.09 29.155V33.0044C725.09 111.022 725.09 189.013 725.035 267.03C725.035 269.768 725.742 271.314 728.298 272.506C732.811 274.621 737.188 277.033 741.511 279.555C742.49 280.124 743.414 281.561 743.496 282.699C743.768 285.789 743.578 288.934 743.578 292.268H665.113C665.113 288.663 665.004 285.139 665.195 281.615C665.249 280.856 666.364 279.961 667.206 279.5C671.964 276.871 676.804 274.458 681.507 271.747C682.459 271.178 682.921 269.687 683.492 268.549C683.71 268.115 683.519 267.491 683.519 266.949C683.519 188.172 683.519 109.423 683.574 30.6459C683.574 27.9622 682.921 26.2815 680.556 24.8719C676.913 22.7032 673.568 20.1008 670.007 17.8237C668.321 16.7665 667.723 15.5195 667.832 13.5677C667.995 10.6942 667.886 7.76652 667.886 4.67617H849.094C849.094 8.30868 849.203 11.8599 849.013 15.384C848.985 16.1159 848.088 17.0105 847.354 17.4984C843.466 20.2363 839.388 22.7845 835.609 25.658C834.521 26.4713 833.597 28.1791 833.543 29.5074C833.325 36.0947 833.434 42.7091 833.434 49.2965C833.434 121.784 833.434 194.272 833.38 266.759C833.38 269.606 834.059 271.259 836.778 272.506C841.318 274.594 845.669 277.061 849.992 279.527C850.889 280.042 851.922 281.127 852.003 282.021C852.248 285.329 852.085 288.69 852.085 292.214H773.947C773.947 288.582 773.838 285.057 774.055 281.533C774.11 280.774 775.252 279.853 776.067 279.392C780.309 276.979 784.55 274.539 788.954 272.425C791.374 271.259 792.054 269.714 792.027 267.139C791.945 210.672 791.972 154.179 791.972 97.7119V33.1399C791.972 31.8658 791.972 30.6188 791.972 29.155H725.09Z" fill="#1F2022"/>
<path d="M1229.13 148.621C1229.13 172.206 1229.13 195.79 1229.13 219.374C1229.13 229.16 1227.85 238.784 1224.53 248.055C1218.25 265.702 1206.83 279.229 1189.79 287.036C1161.29 300.076 1132.18 300.509 1103.76 287.199C1079.13 275.651 1066.95 254.886 1064.37 228.293C1063.88 223.359 1063.88 218.344 1063.88 213.383C1063.85 168.275 1063.88 123.14 1063.88 78.0313C1063.88 66.2392 1065.67 54.7452 1070.51 43.9019C1078.02 26.9863 1090.42 14.7062 1107.57 7.87495C1134.19 -2.75151 1161.19 -2.80573 1187.42 8.82374C1213.06 20.1821 1225.95 41.0826 1228.64 68.4892C1229.13 73.5313 1229.13 78.6548 1229.13 83.724C1229.18 105.356 1229.13 126.989 1229.13 148.648V148.621ZM1106.65 148.242C1106.65 171.934 1106.56 195.627 1106.7 219.32C1106.73 225.04 1107.16 230.787 1108.03 236.425C1111.11 256.133 1122.01 266.705 1141.2 268.982C1159.88 271.205 1175.4 262.015 1182.36 244.612C1185.57 236.561 1186.77 228.13 1186.8 219.537C1186.82 172.151 1186.88 124.793 1186.74 77.4078C1186.74 71.8235 1186.06 66.1578 1184.92 60.682C1180.9 41.3537 1168.88 29.67 1150.36 28.0435C1129.08 26.1731 1113.42 34.9019 1108.66 57.5645C1107.43 63.447 1106.78 69.5464 1106.73 75.5644C1106.51 99.7993 1106.65 124.034 1106.65 148.242Z" fill="#1F2022"/>
<path d="M99.0856 148.432C99.0856 172.233 99.0585 196.034 99.0856 219.835C99.0856 230.543 97.5087 240.952 93.5121 250.928C86.3073 268.793 73.7192 281.723 55.8839 288.907C30.0009 299.371 3.60133 299.75 -22.2001 289.07C-48.2734 278.28 -62.1121 257.759 -65.3747 230.082C-65.8912 225.799 -65.9728 221.461 -65.9728 217.124C-66 170.389 -66 123.655 -66 76.9198C-66 65.8867 -64.2056 55.1519 -59.8827 44.9591C-51.9166 26.1731 -38.0507 13.2695 -18.9375 6.46532C5.72198 -2.31778 30.6534 -2.23645 54.9323 7.65808C80.5706 18.1219 94.6268 37.911 98.2972 65.0735C98.8953 69.5464 99.0313 74.1277 99.0585 78.6548C99.14 101.914 99.0856 125.173 99.0856 148.432ZM-23.0429 148.377C-23.0429 148.377 -23.1789 148.377 -23.2332 148.377C-23.2332 171.528 -23.2876 194.678 -23.2061 217.829C-23.2061 223.115 -22.9342 228.428 -22.336 233.687C-19.9435 254.805 -8.74203 266.515 11.1324 268.928C29.7562 271.205 45.0631 262.314 52.2407 245.019C55.6936 236.696 56.7811 227.967 56.7811 219.022C56.7539 171.962 56.8083 124.929 56.6995 77.8686C56.6995 72.3927 56.2101 66.8084 55.177 61.441C50.8813 39.3477 35.6016 26.9863 14.0959 27.7453C-4.41914 28.3959 -16.0556 37.423 -20.7048 55.179C-21.9554 59.95 -22.907 64.9651 -22.9342 69.8717C-23.1517 96.0583 -23.0429 122.218 -23.0429 148.404V148.377Z" fill="#1F2022"/>
<path d="M872.367 4.4593C873.4 4.4593 874.243 4.4593 875.113 4.4593C902.709 4.4593 930.332 4.35087 957.928 4.54063C972.229 4.62195 986.312 6.49242 999.661 11.9954C1021.98 21.2122 1034.79 38.0465 1035.98 61.7934C1037.21 85.73 1037.05 109.802 1035.98 133.766C1034.87 158.76 1018.83 176.218 992.973 183.374C981.255 186.627 969.265 187.603 957.194 187.793C949.146 187.928 941.099 187.847 933.078 187.847C931.909 187.847 930.74 187.847 929.408 187.847C929.353 189.257 929.245 190.314 929.245 191.371C929.245 216.04 929.245 240.681 929.19 265.35C929.19 267.546 929.788 268.874 931.691 270.067C936.286 272.967 940.664 276.166 945.204 279.121C946.835 280.178 947.569 281.371 947.461 283.35C947.297 286.25 947.406 289.151 947.406 292.268H869.268C869.268 288.636 869.159 285.003 869.349 281.398C869.377 280.693 870.41 279.88 871.171 279.392C875.467 276.464 879.735 273.428 884.194 270.799C886.831 269.226 887.756 267.437 887.756 264.347C887.647 188.199 887.592 112.052 887.837 35.905C887.837 29.3718 886.668 24.6821 880.388 22.0255C880.007 21.8628 879.681 21.5375 879.3 21.2936C871.062 15.6821 870.818 15.0858 872.367 4.51352V4.4593ZM929.435 29.7243V164.425C941.697 164.073 953.795 164.425 965.704 163.179C979.434 161.715 988.596 153.718 991.913 140.136C993.191 134.823 993.843 129.266 993.925 123.79C994.17 106.061 994.061 88.3053 993.979 70.5765C993.979 66.8084 993.68 63.0133 993.191 59.2723C991.043 42.6549 981.745 32.7875 965.35 30.5375C958.39 29.5887 951.267 29.914 944.198 29.7785C939.331 29.67 934.465 29.7785 929.435 29.7785V29.7243Z" fill="#1F2022"/>
<path d="M170.998 187.82C170.916 189.311 170.835 190.368 170.835 191.425C170.835 215.986 170.835 240.546 170.78 265.106C170.78 267.437 171.46 268.847 173.445 270.094C178.121 273.049 182.662 276.22 187.175 279.419C187.963 279.961 188.86 280.964 188.888 281.805C189.078 285.22 188.969 288.663 188.969 292.268H110.804C110.804 288.717 110.695 285.301 110.885 281.886C110.94 281.045 111.837 280.042 112.625 279.5C117.274 276.302 121.951 273.13 126.736 270.148C128.693 268.928 129.509 267.573 129.509 265.214C129.455 186.79 129.455 108.338 129.509 29.914C129.509 27.8538 128.965 26.5526 127.171 25.414C123.229 22.9472 119.395 20.2635 115.616 17.5255C114.773 16.9291 113.957 15.7364 113.903 14.7605C113.686 11.5346 113.822 8.30868 113.822 4.67617C115.099 4.59484 116.133 4.51352 117.166 4.51352C144.327 4.51352 171.515 4.43219 198.675 4.56774C212.106 4.62195 225.32 6.22134 238.071 10.7484C262.785 19.5586 277.548 38.9411 278.227 65.0735C278.771 86.5975 278.826 108.149 278.227 129.646C277.439 158.109 260.718 177.221 231.818 184.16C219.8 187.034 207.566 187.793 195.277 187.874C187.365 187.928 179.426 187.874 171.079 187.874L170.998 187.82ZM170.835 163.829C171.732 163.938 172.249 164.073 172.765 164.073C182.335 164.073 191.906 164.344 201.449 163.91C206.152 163.694 210.992 162.772 215.396 161.145C228.963 156.157 234.672 144.962 235.107 131.706C235.869 108.609 235.923 85.4319 235.107 62.3356C234.428 42.5736 223.09 31.6761 203.27 30.1851C193.863 29.4803 184.374 29.9953 174.94 29.6971C171.705 29.5887 170.726 30.3749 170.726 33.7634C170.862 75.9439 170.808 118.124 170.808 160.305C170.808 161.471 170.808 162.609 170.808 163.856L170.835 163.829Z" fill="#1F2022"/>
<path d="M351.934 28.5044V136.694C352.641 136.802 353.266 136.965 353.892 136.965C365.637 136.965 377.382 137.046 389.1 136.883C390.242 136.883 391.873 135.745 392.417 134.715C395.462 128.751 398.181 122.624 401.145 116.606C401.58 115.712 402.694 114.6 403.564 114.546C407.017 114.302 410.47 114.438 414.168 114.438V183.537C410.388 183.537 406.637 183.645 402.885 183.456C402.232 183.428 401.471 182.29 401.063 181.477C398.154 175.675 395.353 169.82 392.363 164.073C391.873 163.151 390.541 162.067 389.617 162.04C377.328 161.932 365.066 161.986 352.777 162.04C352.587 162.04 352.396 162.175 351.717 162.419C351.717 163.612 351.717 164.968 351.717 166.323C351.717 194.245 351.717 222.139 351.717 250.061C351.717 251.687 351.608 253.314 351.554 254.913C351.418 259.467 349.215 262.639 345.056 264.564C344.186 264.97 343.533 265.811 342.772 266.461C342.908 266.787 343.071 267.139 343.207 267.464C344.349 267.464 345.518 267.464 346.66 267.464C367.758 267.464 388.828 267.41 409.926 267.546C412.618 267.546 413.678 266.651 414.494 264.238C418.355 252.988 422.46 241.847 426.348 230.597C426.973 228.754 427.87 228.103 429.801 228.157C434.776 228.293 439.779 228.211 445.026 228.211V292.295H290.462C290.462 288.609 290.326 285.085 290.544 281.561C290.598 280.747 291.686 279.826 292.528 279.256C297.178 276.085 301.854 272.913 306.639 269.931C308.406 268.82 309.032 267.573 309.032 265.485C308.95 246.672 308.977 227.832 308.977 209.019C308.977 149.191 308.977 89.3626 309.059 29.5345C309.059 26.6881 308.243 24.9803 305.823 23.5436C302.289 21.4291 299.026 18.8809 295.546 16.658C293.888 15.6279 293.154 14.4623 293.29 12.4834C293.48 9.93518 293.344 7.35989 293.344 4.64906H439.697V68.9771C436.108 68.9771 432.356 69.0313 428.604 68.9771C425.587 68.9229 421.835 69.7632 419.795 68.2994C417.892 66.944 417.784 63.0675 416.995 60.2753C414.276 50.8416 411.503 41.4079 408.92 31.92C408.241 29.4532 407.343 28.4502 404.57 28.4773C388.149 28.6399 371.754 28.5586 355.333 28.5586C354.272 28.5586 353.212 28.5586 351.961 28.5586L351.934 28.5044Z" fill="#1F2022"/>
<path d="M550.624 188.172C536.758 216.799 523.164 244.775 509.407 273.157C513.54 275.271 517.4 277.386 521.37 279.256C523.192 280.124 523.953 281.208 523.844 283.241C523.681 286.142 523.817 289.07 523.817 292.214H466.26C466.26 288.717 466.233 285.193 466.287 281.669C466.287 281.154 466.776 280.558 467.184 280.124C467.538 279.744 468.081 279.473 468.571 279.283C477.76 275.949 482.518 268.901 486.624 260.335C503.263 225.609 520.473 191.209 537.547 156.7C538.498 154.775 538.607 153.203 537.819 151.224C521.669 109.856 505.547 68.462 489.56 27.0405C488.201 23.5436 486.08 21.3749 482.98 19.5315C475.177 14.896 475.232 14.7876 475.857 5.81472C475.857 5.48942 476.02 5.19123 476.075 4.92014C476.292 4.7846 476.482 4.56774 476.646 4.56774C490.974 4.67617 505.329 4.70328 519.657 4.94725C524.062 5.02858 527.65 7.25146 529.907 10.9653C532.136 14.652 534.339 18.4472 535.861 22.4592C545.35 47.2904 554.621 72.203 564.001 97.0884C564.409 98.1999 564.871 99.2571 565.605 101.046C578.274 74.8325 590.672 49.188 603.151 23.3809C598.883 21.1851 594.778 19.2062 590.835 16.9562C589.857 16.387 588.959 14.9502 588.851 13.8388C588.579 10.8569 588.769 7.84784 588.769 4.67617H645.483C645.483 8.17314 645.538 11.5888 645.429 15.0044C645.429 15.5195 644.858 16.0888 644.45 16.5225C644.178 16.8207 643.743 17.0376 643.335 17.1731C633.983 20.5074 629.225 27.664 625.119 36.3387C610.193 67.9199 594.642 99.1758 579.226 130.54C578.166 132.682 578.139 134.444 579.009 136.639C596.708 181.341 614.326 226.097 632.052 270.799C632.705 272.452 634.2 273.916 635.641 275.027C637.408 276.41 639.529 277.359 641.514 278.497C648.855 282.753 649.045 283.214 647.631 292.323C646.734 292.377 645.782 292.485 644.858 292.485C632.786 292.485 620.715 292.16 608.671 292.594C598.094 292.973 591.352 288.446 587.518 278.877C579.77 259.63 571.912 240.41 564.137 221.19C560.113 211.269 556.143 201.347 552.147 191.425C551.793 190.531 551.331 189.69 550.651 188.227L550.624 188.172Z" fill="#1F2022"/>
</svg>
